<?xml version="1.0" encoding="UTF-8"?>
<svg version="1.1" xmlns="http://www.w3.org/2000/svg" width="512" height="512">
<path d="M0 0 C1.83081871 -0.01210762 1.83081871 -0.01210762 3.69862366 -0.02445984 C6.28661699 -0.03826986 8.8746283 -0.04900574 11.46264648 -0.05688477 C14.06393922 -0.06830735 16.66521038 -0.08860082 19.26635742 -0.1184082 C36.42827225 -0.31466341 52.67241378 0.62257095 69.47265625 4.23828125 C70.16316071 4.38566742 70.85366516 4.53305359 71.56509399 4.68490601 C75.29887751 5.50281954 78.98151025 6.45227843 82.66015625 7.48828125 C84.2690271 7.93324951 84.2690271 7.93324951 85.91040039 8.38720703 C105.16816068 13.86090058 124.74080178 21.25833258 141.66186523 32.09790039 C143.99301922 33.56598995 146.4041935 34.84268062 148.84765625 36.11328125 C157.71854672 40.90405221 165.59033693 46.99242961 173.47265625 53.23828125 C174.21773438 53.80804688 174.9628125 54.3778125 175.73046875 54.96484375 C200.31787416 74.03428359 222.31864887 98.02585945 237.47265625 125.23828125 C237.96378906 126.1096875 238.45492188 126.98109375 238.9609375 127.87890625 C243.06714019 135.27228467 246.85976403 142.82238123 250.578125 150.41650391 C251.32544167 151.93846816 252.08505766 153.45438519 252.84765625 154.96875 C263.59252296 177.20072751 269.28436084 202.86098404 272.47265625 227.23828125 C272.56691895 227.91358887 272.66118164 228.58889648 272.75830078 229.28466797 C275.48899165 251.83851366 275.11052873 277.02248876 270.47265625 299.23828125 C270.12605957 300.93307617 270.12605957 300.93307617 269.77246094 302.66210938 C264.11466376 329.74836858 256.3583496 355.18027033 242.30859375 379.09765625 C240.80891723 381.66306034 239.37602432 384.24491667 237.97265625 386.86328125 C232.97792228 395.88061976 226.94488073 404.23425098 220.47265625 412.23828125 C219.79589844 413.0890625 219.11914062 413.93984375 218.421875 414.81640625 C203.7168677 433.09971906 187.26187233 449.19227973 168.47265625 463.23828125 C167.61679932 463.87950928 167.61679932 463.87950928 166.74365234 464.53369141 C154.06644289 473.97264221 140.54796568 481.44232508 126.34521484 488.32861328 C124.64991804 489.15216946 122.9612634 489.98936415 121.2734375 490.828125 C106.56758304 497.92685372 91.12328418 502.51621841 75.34765625 506.55078125 C74.69340668 506.72172302 74.0391571 506.89266479 73.36508179 507.06878662 C55.79651483 511.62654872 38.49605781 512.59174396 20.38818359 512.55395508 C17.24020568 512.55079885 14.09317503 512.57434602 10.9453125 512.59960938 C-7.64586348 512.65932504 -25.64990787 510.71273719 -43.65234375 505.98828125 C-45.40973877 505.53811646 -45.40973877 505.53811646 -47.20263672 505.07885742 C-57.52711846 502.36905116 -67.56133475 499.04772065 -77.52734375 495.23828125 C-78.60628906 494.83480469 -79.68523437 494.43132812 -80.796875 494.015625 C-84.99545245 492.39889605 -88.66848055 490.55359917 -92.52734375 488.23828125 C-94.16640387 487.57544645 -95.81316374 486.93151195 -97.46484375 486.30078125 C-101.56617394 484.70750232 -104.90554914 482.75779055 -108.52734375 480.23828125 C-109.72745949 479.63822338 -110.93670892 479.05624179 -112.15234375 478.48828125 C-152.30415242 458.83141856 -190.21625311 416.96855355 -209.52734375 377.23828125 C-210.19232064 375.90410437 -210.85898144 374.57076541 -211.52734375 373.23828125 C-215.52734375 365.23828125 -215.52734375 365.23828125 -216.5234375 363.234375 C-217.19065956 361.90771946 -217.87033224 360.58725027 -218.5625 359.2734375 C-221.1042125 354.39296293 -222.86811206 349.47577251 -224.52734375 344.23828125 C-224.9868031 342.92388669 -225.45151954 341.61131614 -225.921875 340.30078125 C-229.02202513 331.49570449 -231.57056594 322.62179591 -233.77734375 313.55078125 C-234.14629761 312.05708008 -234.14629761 312.05708008 -234.52270508 310.53320312 C-238.3288583 294.43156011 -238.87238673 278.86767124 -238.84301758 262.3894043 C-238.83987117 258.70786522 -238.86333692 255.02714266 -238.88867188 251.34570312 C-238.94244685 231.86115409 -237.26817591 213.12213105 -232.33984375 194.23828125 C-231.88593262 192.4744812 -231.88593262 192.4744812 -231.42285156 190.67504883 C-222.5269285 157.06494032 -206.68866396 126.73216612 -185.52734375 99.23828125 C-184.97949219 98.51511719 -184.43164062 97.79195313 -183.8671875 97.046875 C-170.90680599 80.34421772 -155.3969301 64.97819286 -138.52734375 52.23828125 C-137.95822266 51.79830811 -137.38910156 51.35833496 -136.80273438 50.9050293 C-131.68020853 46.98588845 -126.36689719 43.47263257 -120.90234375 40.05078125 C-119.67257813 39.27057617 -119.67257813 39.27057617 -118.41796875 38.47460938 C-114.20831197 35.82496206 -110.00407202 33.4179128 -105.52734375 31.23828125 C-104.10189904 30.35648242 -102.68507439 29.46059235 -101.27734375 28.55078125 C-72.44820645 11.2618156 -33.61247314 0.21455237 0 0 Z " fill="#19191B" transform="translate(238.52734375,-0.23828125)"/>
<path d="M0 0 C1.11890625 -0.03738281 2.2378125 -0.07476562 3.390625 -0.11328125 C11.52199488 0.91732261 17.12521998 8.25438401 22.6875 13.75 C23.57501953 14.59626953 24.46253906 15.44253906 25.37695312 16.31445312 C26.21033203 17.13751953 27.04371094 17.96058594 27.90234375 18.80859375 C28.66538818 19.55294678 29.42843262 20.2972998 30.21459961 21.06420898 C31.75 23.3125 31.75 23.3125 31.56274414 25.93334961 C30.65933828 28.57789457 29.55100051 30.96408624 28.25 33.4375 C23.19838607 43.10018013 22.86875873 55.50556595 25.7734375 66.015625 C27.204943 69.03681339 28.77812187 71.61500352 30.75 74.3125 C31.38035156 75.20195312 32.01070312 76.09140625 32.66015625 77.0078125 C38.63105349 84.48538474 46.53977384 90.32037288 56.19140625 91.6484375 C66.64017188 92.43642887 78.17750819 92.42275951 86.8125 85.625 C88.2665625 84.4803125 88.2665625 84.4803125 89.75 83.3125 C95.15954996 85.58663299 98.84103229 90.06928214 102.9140625 94.16088867 C104.36860551 95.61859162 105.83596154 97.06246476 107.3046875 98.50585938 C108.22765625 99.42818359 109.150625 100.35050781 110.1015625 101.30078125 C110.94541504 102.14165283 111.78926758 102.98252441 112.65869141 103.84887695 C116.26928997 108.10226828 117.38921722 112.3221841 117.15332031 117.81274414 C115.78019029 126.32332422 107.2640876 133.2377893 101.43505859 138.96362305 C99.97942921 140.39523132 98.53803023 141.84016834 97.09765625 143.28710938 C90.01734075 150.3125 90.01734075 150.3125 87.75 150.3125 C87.42 151.3025 87.09 152.2925 86.75 153.3125 C84 156.0625 84 156.0625 80.75 158.3125 C76.13106715 158.15486044 74.08046349 156.10520278 70.95703125 152.875 C70.07982422 151.98039063 69.20261719 151.08578125 68.29882812 150.1640625 C67.39583984 149.22304687 66.49285156 148.28203125 65.5625 147.3125 C63.75851077 145.45638705 61.95261817 143.60212151 60.14453125 141.75 C59.34893799 140.92371094 58.55334473 140.09742188 57.73364258 139.24609375 C55.27852423 136.85291992 54.29715858 136.37197376 50.875 136 C47.70475233 136.06465083 47.70475233 136.06465083 45.375 137.9375 C43.59954597 140.23710837 43.59954597 140.23710837 43.0625 143.0625 C44.87989404 151.65381729 55.28939288 158.85029332 61.4921875 164.6640625 C62.18570312 165.33695313 62.87921875 166.00984375 63.59375 166.703125 C64.22474609 167.30157227 64.85574219 167.90001953 65.50585938 168.51660156 C66.75 170.3125 66.75 170.3125 66.79785156 172.16918945 C65.20588307 175.42545492 62.70804381 177.71998489 60.140625 180.21484375 C59.57680115 180.77442276 59.01297729 181.33400177 58.43206787 181.91053772 C56.62830721 183.69753232 54.81442298 185.47383873 53 187.25 C51.79358295 188.44136112 50.58784595 189.6334113 49.3828125 190.82617188 C46.65800063 193.52106834 43.92577308 196.2082409 41.1895752 198.89157104 C39.79050348 200.27252115 38.40623234 201.66841593 37.02246094 203.06469727 C34.71911616 205.34304872 32.27807417 207.29004066 29.75 209.3125 C28.07292162 210.9686895 26.40856214 212.63776803 24.75 214.3125 C23.57647766 215.47622609 22.40193065 216.63891947 21.2265625 217.80078125 C12.45446181 226.49465712 12.45446181 226.49465712 4.21875 235.69140625 C2.19251216 237.92781237 -0.09253375 239.77245903 -2.42041016 241.68457031 C-4.23461026 243.29880654 -5.74436142 244.97360205 -7.3046875 246.83203125 C-11.89905657 252.14997088 -16.88542869 257.05585195 -21.875 262 C-22.803125 262.92361328 -23.73125 263.84722656 -24.6875 264.79882812 C-26.41240902 266.51508788 -28.13835167 268.23030997 -29.86572266 269.9440918 C-32.3327385 272.39468782 -34.79225374 274.85260911 -37.25 277.3125 C-44.58333333 284.64583333 -51.91666667 291.97916667 -59.25 299.3125 C-60.13816406 300.20300049 -61.02632812 301.09350098 -61.94140625 302.01098633 C-73.098264 313.13362783 -73.098264 313.13362783 -81.5625 313.8125 C-91.03866937 313.44460287 -98.06320709 303.7478387 -104.25 297.4375 C-105.12011719 296.55835938 -105.99023438 295.67921875 -106.88671875 294.7734375 C-109.01248191 292.6243143 -111.13339889 290.47064069 -113.25 288.3125 C-112.2132719 284.97653935 -111.33801222 282.43742057 -109.3125 279.5625 C-103.99917877 271.18999382 -103.26277779 262.05010091 -104.25 252.3125 C-106.75954893 241.7365438 -113.78965066 232.45921363 -122.3828125 226.0078125 C-131.64894233 220.52892919 -142.92150105 218.52372566 -153.38671875 221.078125 C-157.80868923 222.44877268 -161.90711648 223.8483785 -165.6875 226.5625 C-168.68989896 228.6129188 -169.69473709 228.84759587 -173.25 228.3125 C-175.80541992 226.35644531 -175.80541992 226.35644531 -178.48046875 223.640625 C-178.95696365 223.16179871 -179.43345856 222.68297241 -179.9243927 222.18963623 C-180.92777216 221.17653161 -181.92512142 220.15742362 -182.91674805 219.1328125 C-184.43057715 217.56964846 -185.96220055 216.02588139 -187.49804688 214.484375 C-197.5178001 204.3197333 -197.5178001 204.3197333 -197.625 197.4375 C-197.41700873 189.53383184 -192.64381163 185.55284285 -187.26953125 180.328125 C-184.90200195 177.96517506 -182.76541373 175.46279718 -180.6171875 172.90234375 C-178.61794 170.57750452 -176.44513017 168.45134478 -174.25 166.3125 C-173.1053125 165.136875 -173.1053125 165.136875 -171.9375 163.9375 C-169.75872854 161.80939764 -167.5492532 159.80547369 -165.25 157.8125 C-161.34986742 154.42554276 -157.58217794 151.05811248 -154.4375 146.9375 C-151.9267688 143.92462256 -149.11642975 141.55217429 -146.140625 139.01171875 C-143.87775468 136.97794068 -142.08326448 134.73502806 -140.25 132.3125 C-138.125 130 -138.125 130 -136.25 128.3125 C-135.59 128.3125 -134.93 128.3125 -134.25 128.3125 C-133.755 126.8275 -133.755 126.8275 -133.25 125.3125 C-131.58784732 123.97354368 -129.92036393 122.64119858 -128.25 121.3125 C-126.56267723 119.32989574 -124.89633943 117.3292658 -123.25 115.3125 C-120.26746188 112.15953114 -117.09383381 109.28325386 -113.84619141 106.41040039 C-107.64689238 100.8379158 -101.77626642 94.96494091 -95.8984375 89.05859375 C-94.74709775 87.90538364 -93.59553311 86.75239803 -92.4437561 85.59962463 C-89.4463125 82.59840447 -86.45188687 79.59419145 -83.45812988 76.58929443 C-80.38930683 73.51015137 -77.31756974 70.43391821 -74.24609375 67.35742188 C-68.24457778 61.34525459 -62.24625439 55.32991493 -56.25 49.3125 C-52.6460802 51.00322598 -50.35343044 52.99031411 -47.5546875 55.84765625 C-46.23404297 57.18473633 -46.23404297 57.18473633 -44.88671875 58.54882812 C-43.97535156 59.48146484 -43.06398437 60.41410156 -42.125 61.375 C-40.31210385 63.22222167 -38.49710642 65.06738421 -36.6796875 66.91015625 C-35.87772949 67.73008057 -35.07577148 68.55000488 -34.24951172 69.39477539 C-31.78101174 71.76230498 -30.78968556 72.25383853 -27.375 72.625 C-24.21581945 72.55303995 -24.21581945 72.55303995 -21.875 70.75 C-20.18465605 68.21448408 -19.54093963 66.45542242 -19.61669922 63.39672852 C-21.11968479 58.45031842 -25.84056305 54.99886532 -29.5 51.5625 C-30.37269531 50.71300781 -31.24539063 49.86351562 -32.14453125 48.98828125 C-35.71167122 45.54095361 -39.22127753 42.21767437 -43.25 39.3125 C-42.67188317 36.11603166 -41.80859318 34.50618434 -39.484375 32.25390625 C-38.92363281 31.70283203 -38.36289062 31.15175781 -37.78515625 30.58398438 C-37.19605469 30.02001953 -36.60695313 29.45605469 -36 28.875 C-35.42636719 28.31490234 -34.85273438 27.75480469 -34.26171875 27.17773438 C-33.1215422 26.06482856 -31.9787276 24.95461885 -30.83325195 23.84716797 C-27.98233816 21.08373788 -25.19068394 18.2617311 -22.39599609 15.44165039 C-20.28658158 13.31352213 -18.17459145 11.18797122 -16.0625 9.0625 C-15.33869141 8.3303125 -14.61488281 7.598125 -13.86914062 6.84375 C-13.17626953 6.14765625 -12.48339844 5.4515625 -11.76953125 4.734375 C-10.82750854 3.78449707 -10.82750854 3.78449707 -9.86645508 2.81542969 C-6.7528703 -0.07948466 -4.1520192 0.09005521 0 0 Z " fill="#4BBC80" transform="translate(296.25,93.6875)"/>
<path d="M0 0 C9.23900578 2.13902531 17.32503637 13.72830216 23.91137695 20.34350586 C25.40134347 21.83894014 26.89672643 23.32881418 28.39257812 24.81835938 C29.34667581 25.77311619 30.30046415 26.72818226 31.25390625 27.68359375 C32.10670166 28.53751709 32.95949707 29.39144043 33.83813477 30.27124023 C36.91089068 33.54537622 37.16347266 35.89889309 37.08984375 40.3984375 C36.8125 42.375 36.8125 42.375 35.1875 44.875 C31.93083428 46.93184151 30.61646469 47.17968484 26.8125 46.375 C19.57241853 41.24388456 13.40645147 34.12186094 7.15551758 27.84838867 C5.35807764 26.04552659 3.55527339 24.24815015 1.75195312 22.45117188 C0.60644953 21.30500853 -0.53874439 20.15853558 -1.68359375 19.01171875 C-2.22205429 18.47528244 -2.76051483 17.93884613 -3.31529236 17.38615417 C-8.0168869 12.65459823 -8.0168869 12.65459823 -8.5625 8.5625 C-8.1875 5.375 -8.1875 5.375 -6.125 2.4375 C-3.1875 0.375 -3.1875 0.375 0 0 Z " fill="#19201C" transform="translate(293.1875,174.625)"/>
<path d="M0 0 C1.11890625 -0.03738281 2.2378125 -0.07476562 3.390625 -0.11328125 C11.66933953 0.93599768 17.0704974 8.3992496 22.625 14.0625 C23.50414062 14.95066406 24.38328125 15.83882812 25.2890625 16.75390625 C27.44732519 18.93562832 29.60076168 21.12189346 31.75 23.3125 C31.255 24.7975 31.255 24.7975 30.75 26.3125 C30.38648438 25.86519531 30.02296875 25.41789062 29.6484375 24.95703125 C27.17273554 21.97984094 24.80389099 19.35721806 21.8125 16.875 C18.62920333 14.21142524 16.10121686 11.36537668 13.4609375 8.1796875 C10.85241246 5.33294099 9.04428659 3.49188696 5.12890625 2.94921875 C3.73478516 2.97435547 3.73478516 2.97435547 2.3125 3 C1.38566406 3.00386719 0.45882812 3.00773437 -0.49609375 3.01171875 C-7.4722373 3.77365216 -11.00917557 7.64378915 -15.73828125 12.4375 C-16.44147995 13.1402002 -17.14467865 13.84290039 -17.8691864 14.56689453 C-19.34942283 16.04946651 -20.82597925 17.53572068 -22.29907227 19.02539062 C-24.56299363 21.3129988 -26.84003824 23.58690148 -29.11914062 25.859375 C-30.55548314 27.30129121 -31.9910573 28.7439733 -33.42578125 30.1875 C-34.11005692 30.87086426 -34.79433258 31.55422852 -35.49934387 32.25830078 C-36.12386948 32.8923584 -36.74839508 33.52641602 -37.3918457 34.1796875 C-37.94524124 34.73769043 -38.49863678 35.29569336 -39.06880188 35.87060547 C-40.46123629 37.25969981 -40.46123629 37.25969981 -40.25 39.3125 C-39.26 39.6425 -38.27 39.9725 -37.25 40.3125 C-36.92 41.6325 -36.59 42.9525 -36.25 44.3125 C-38.56 42.6625 -40.87 41.0125 -43.25 39.3125 C-42.29184217 35.47986869 -42.08877135 34.77769033 -39.484375 32.25390625 C-38.92363281 31.70283203 -38.36289062 31.15175781 -37.78515625 30.58398438 C-37.19605469 30.02001953 -36.60695313 29.45605469 -36 28.875 C-35.42636719 28.31490234 -34.85273438 27.75480469 -34.26171875 27.17773438 C-33.1215422 26.06482856 -31.9787276 24.95461885 -30.83325195 23.84716797 C-27.98233816 21.08373788 -25.19068394 18.2617311 -22.39599609 15.44165039 C-20.28658158 13.31352213 -18.17459145 11.18797122 -16.0625 9.0625 C-15.33869141 8.3303125 -14.61488281 7.598125 -13.86914062 6.84375 C-13.17626953 6.14765625 -12.48339844 5.4515625 -11.76953125 4.734375 C-10.82750854 3.78449707 -10.82750854 3.78449707 -9.86645508 2.81542969 C-6.7528703 -0.07948466 -4.1520192 0.09005521 0 0 Z " fill="#69C171" transform="translate(296.25,93.6875)"/>
<path d="M0 0 C0.495 0.99 0.495 0.99 1 2 C-4.79645223 9.6011442 -11.13861997 16.46451644 -17.88671875 23.22265625 C-18.91719798 24.25958107 -19.94753477 25.29664745 -20.97773743 26.33384705 C-23.11812768 28.48610124 -25.26249636 30.63429711 -27.40942383 32.7800293 C-30.15665483 35.5270553 -32.88976199 38.28769841 -35.61972332 41.05187321 C-37.73444572 43.18881644 -39.85817936 45.31662419 -41.98456764 47.44195366 C-42.99687566 48.45661587 -44.00595594 49.47450934 -45.01166344 50.49571419 C-46.41319679 51.91684894 -47.82875021 53.32411563 -49.24487305 54.73071289 C-50.0445903 55.53328018 -50.84430756 56.33584747 -51.66825867 57.16273499 C-54.18813431 59.14823796 -55.843894 59.66592232 -59 60 C-55.03904636 55.12498013 -50.84422916 50.97079267 -46.109375 46.84765625 C-42.84390127 43.98734315 -39.82310288 41.07854861 -37.1875 37.625 C-34.6767688 34.61212256 -31.86642975 32.23967429 -28.890625 29.69921875 C-26.62775468 27.66544068 -24.83326448 25.42252806 -23 23 C-20.875 20.6875 -20.875 20.6875 -19 19 C-18.34 19 -17.68 19 -17 19 C-16.505 17.515 -16.505 17.515 -16 16 C-14.33784732 14.66104368 -12.67036393 13.32869858 -11 12 C-9.31267723 10.01739574 -7.64633943 8.0167658 -6 6 C-4.35216394 4.31471312 -2.68997323 2.64302953 -1 1 C-0.67 0.67 -0.34 0.34 0 0 Z " fill="#45A377" transform="translate(179,203)"/>
<path d="M0 0 C4 2 4 2 6 5 C5.09971069 4.76135223 4.19942139 4.52270447 3.27185059 4.27682495 C0.02510505 3.67223958 0.02510505 3.67223958 -2.2376709 5.40261841 C-2.9346106 6.11811859 -3.63155029 6.83361877 -4.34960938 7.57080078 C-5.15064087 8.37558868 -5.95167236 9.18037659 -6.77697754 10.009552 C-7.62401245 10.89585297 -8.47104736 11.78215393 -9.34375 12.6953125 C-10.23106812 13.59490692 -11.11838623 14.49450134 -12.03259277 15.4213562 C-14.39077535 17.81762165 -16.73294599 20.22754441 -19.06829834 22.64593506 C-22.35004887 26.03625183 -25.66138083 29.39776137 -28.96740723 32.76437378 C-30.7242959 34.55693542 -32.47639011 36.35421215 -34.22302246 38.1567688 C-38.31421122 42.36373912 -42.39166288 46.36306458 -47 50 C-47.66 49.67 -48.32 49.34 -49 49 C-32.83 32.83 -16.66 16.66 0 0 Z " fill="#5FBA78" transform="translate(240,143)"/>
<path d="M0 0 C0.99 0 1.98 0 3 0 C3.66 2.31 4.32 4.62 5 7 C5.66 7 6.32 7 7 7 C11.5103635 16.43076005 14.27132017 27.86027244 11.01953125 38.08203125 C9.77976832 41.1146821 8.44048917 44.05781107 7 47 C6.59652344 47.83660156 6.19304687 48.67320312 5.77734375 49.53515625 C4.87518138 51.36858301 3.94161493 53.18651939 3 55 C4.72600767 56.7532127 6.45564297 58.50258071 8.1875 60.25 C8.67025391 60.74113281 9.15300781 61.23226562 9.65039062 61.73828125 C12.61777974 64.72558573 15.69901308 67.37729806 19 70 C20.37368345 71.63356951 21.71937515 73.2925002 23 75 C22.67 75.66 22.34 76.32 22 77 C14.74 69.74 7.48 62.48 0 55 C2 49 2 49 3.9375 46.25 C9.24397976 37.88827432 10.00741865 28.72718676 9 19 C7.22795564 12.1690548 3.56226319 6.04416787 0 0 Z " fill="#3B967B" transform="translate(183,327)"/>
<path d="M0 0 C1.32 0 2.64 0 4 0 C5.625 2.4375 5.625 2.4375 7 5 C7.66 5.33 8.32 5.66 9 6 C9 6.66 9 7.32 9 8 C9.66 8 10.32 8 11 8 C11.433125 8.639375 11.86625 9.27875 12.3125 9.9375 C14.4279273 12.52302225 15.78755539 12.50214969 19 13 C21.14728149 33.77907777 21.14728149 33.77907777 17 40 C15.6078125 40.433125 15.6078125 40.433125 14.1875 40.875 C10.42838207 42.20174751 8.62989717 44.06070316 6 47 C5.34 46.67 4.68 46.34 4 46 C4.60328125 45.43152344 5.2065625 44.86304688 5.828125 44.27734375 C14.3553499 36.30826736 14.3553499 36.30826736 17.4375 25.4375 C17.42674855 19.57795851 14.62113943 15.45624591 10.64453125 11.38671875 C9.37473686 10.14587304 8.09719041 8.91291683 6.8125 7.6875 C5.52534972 6.44346609 4.24008018 5.19748221 2.95703125 3.94921875 C2.38960205 3.40612061 1.82217285 2.86302246 1.23754883 2.3034668 C0 1 0 1 0 0 Z " fill="#132A14" transform="translate(395,184)"/>
<path d="M0 0 C8.58 0 17.16 0 26 0 C26 0.66 26 1.32 26 2 C28.475 2.99 28.475 2.99 31 4 C28.66998587 5.4754987 27.56187505 6.11818406 24.80859375 5.5390625 C24.02613281 5.23742187 23.24367187 4.93578125 22.4375 4.625 C12.35588259 1.33334454 3.62747529 2.82150632 -6 7 C-7.8788524 8.10050676 -7.8788524 8.10050676 -9.4375 9.25 C-12 11 -12 11 -14.75 11.4375 C-15.4925 11.293125 -16.235 11.14875 -17 11 C-17.66 10.01 -18.32 9.02 -19 8 C-17.96875 8.0825 -16.9375 8.165 -15.875 8.25 C-11.32327308 7.9563402 -9.6396242 6.63291964 -6 4 C-2.625 2.75 -2.625 2.75 0 2 C0 1.34 0 0.68 0 0 Z " fill="#3B957A" transform="translate(140,311)"/>
<path d="M0 0 C0.33 0 0.66 0 1 0 C1.76533154 8.03598121 -0.04400329 11.76789749 -5 18 C-8.49571054 21.8211589 -12.16481 25.45162316 -15.875 29.0625 C-16.86007768 30.03249003 -17.84445779 31.00318902 -18.828125 31.97460938 C-21.21201327 34.32344046 -23.60264626 36.66492763 -26 39 C-26.66 38.34 -27.32 37.68 -28 37 C-27.55269531 36.56429687 -27.10539062 36.12859375 -26.64453125 35.6796875 C-23.77535673 32.85333648 -21.05035927 30.0616901 -18.5 26.9375 C-16.04141799 24.04866614 -13.49350878 21.76306804 -10.55078125 19.39453125 C-8.7459798 17.88740659 -8.7459798 17.88740659 -7 15 C-6.34 15 -5.68 15 -5 15 C-5 14.34 -5 13.68 -5 13 C-4.34 13 -3.68 13 -3 13 C-2.86722656 12.14535156 -2.73445313 11.29070312 -2.59765625 10.41015625 C-2.42105469 9.30542969 -2.24445313 8.20070312 -2.0625 7.0625 C-1.80146484 5.40927734 -1.80146484 5.40927734 -1.53515625 3.72265625 C-1 1 -1 1 0 0 Z " fill="#67B370" transform="translate(412,205)"/>
<path d="M0 0 C0.69677734 1.79467773 0.69677734 1.79467773 1 4 C-0.24755859 5.65649414 -0.24755859 5.65649414 -2.1484375 7.28515625 C-2.82455078 7.89311035 -3.50066406 8.50106445 -4.19726562 9.12744141 C-4.91591797 9.76601074 -5.63457031 10.40458008 -6.375 11.0625 C-12.9293909 16.96035648 -12.9293909 16.96035648 -15.5 25.125 C-15.37406754 28.49369331 -14.70321171 31.70662514 -14 35 C-13.34 35 -12.68 35 -12 35 C-12.33 35.99 -12.66 36.98 -13 38 C-17.24786217 32.79294314 -18.3747399 30.19940452 -18.26953125 23.5234375 C-17.59321818 17.19157894 -12.3651095 13.23968508 -8.0390625 9.03515625 C-5.16887149 6.17046369 -2.59518324 3.11421988 0 0 Z " fill="#3C9879" transform="translate(117,265)"/>
<path d="M0 0 C0.66 0 1.32 0 2 0 C1.55970115 4.37575353 -1.35542093 6.73752108 -4.34765625 9.640625 C-4.87894638 10.16767029 -5.41023651 10.69471558 -5.95762634 11.23773193 C-7.65232825 12.91567187 -9.35717217 14.58286728 -11.0625 16.25 C-12.21487745 17.38732745 -13.36657852 18.52534066 -14.51757812 19.6640625 C-17.33727184 22.45071992 -20.16610588 25.22778792 -23 28 C-23.33 27.01 -23.66 26.02 -24 25 C-23.36191406 24.37351562 -22.72382813 23.74703125 -22.06640625 23.1015625 C-21.24011719 22.28429687 -20.41382813 21.46703125 -19.5625 20.625 C-18.32693359 19.40683594 -18.32693359 19.40683594 -17.06640625 18.1640625 C-14.96565328 16.17651485 -14.96565328 16.17651485 -14 14 C-13.01 14 -12.02 14 -11 14 C-10.835 13.319375 -10.67 12.63875 -10.5 11.9375 C-8.5871566 8.191515 -6.00481781 6.18295268 -2.77734375 3.55078125 C-0.89500097 2.10661042 -0.89500097 2.10661042 0 0 Z " fill="#5BAA70" transform="translate(361,264)"/>
<path d="M0 0 C0.66 0 1.32 0 2 0 C-0.11959605 6.34408331 -4.65698836 10.13256317 -9.3125 14.75 C-10.16779297 15.62527344 -11.02308594 16.50054687 -11.90429688 17.40234375 C-12.73638672 18.23378906 -13.56847656 19.06523437 -14.42578125 19.921875 C-15.18286377 20.68081055 -15.93994629 21.43974609 -16.7199707 22.22167969 C-19.21031305 24.16403472 -20.89387498 24.65613083 -24 25 C-20.03904636 20.12498013 -15.84422916 15.97079267 -11.109375 11.84765625 C-7.68594144 8.84898204 -4.60678729 5.78015509 -1.8125 2.1875 C-1.214375 1.465625 -0.61625 0.74375 0 0 Z " fill="#3D9D7A" transform="translate(144,238)"/>
<path d="M0 0 C6.6 0 13.2 0 20 0 C20.33 0.66 20.66 1.32 21 2 C20.67 2.66 20.34 3.32 20 4 C17.79194476 4.0544452 15.58349446 4.09299283 13.375 4.125 C12.14523437 4.14820313 10.91546875 4.17140625 9.6484375 4.1953125 C6.05683959 4.0030428 3.33338825 3.30258556 0 2 C0 1.34 0 0.68 0 0 Z " fill="#0D1A0E" transform="translate(348,182)"/>
<path d="M0 0 C2.79238709 1.27583203 4.80249205 2.62116417 7 4.75 C17.26168939 13.56425109 27.98723253 15.16139943 41 16 C35.98185408 19.34543061 30.75289153 18.02751541 25 17 C14.33846698 13.95760746 5.83494587 9.65010278 0 0 Z " fill="#6FC27C" transform="translate(327,171)"/>
<path d="M0 0 C3.15204981 1.39347376 5.26171773 3.02485079 7.671875 5.4765625 C8.66767578 6.48203125 8.66767578 6.48203125 9.68359375 7.5078125 C10.36550781 8.20648438 11.04742187 8.90515625 11.75 9.625 C12.44738281 10.33140625 13.14476562 11.0378125 13.86328125 11.765625 C15.58012488 13.50598703 17.29211832 15.25084981 19 17 C16 17 16 17 13.75 14.9375 C12.82699722 13.96430372 11.91108487 12.98436248 11 12 C9.82123088 10.7417633 8.63338567 9.49197976 7.4375 8.25 C6.87933594 7.65703125 6.32117188 7.0640625 5.74609375 6.453125 C3.71532404 4.76308846 2.63932043 4.18050805 0 4 C-2.64469024 4.95973949 -2.64469024 4.95973949 -5.25 6.4375 C-6.14203125 6.91058594 -7.0340625 7.38367188 -7.953125 7.87109375 C-8.62859375 8.24363281 -9.3040625 8.61617187 -10 9 C-10 8.01 -10 7.02 -10 6 C-9.36191406 5.65066406 -8.72382813 5.30132812 -8.06640625 4.94140625 C-7.24011719 4.48636719 -6.41382813 4.03132812 -5.5625 3.5625 C-4.73878906 3.11003906 -3.91507812 2.65757812 -3.06640625 2.19140625 C-1.07691202 1.16337603 -1.07691202 1.16337603 0 0 Z " fill="#6EBF75" transform="translate(386,177)"/>
<path d="M0 0 C0.99 0.33 1.98 0.66 3 1 C-5.10546875 9.10546875 -5.10546875 9.10546875 -6.5690918 10.56713867 C-7.93608965 11.93600241 -9.29634174 13.31159281 -10.65625 14.6875 C-13.31972394 17.31546095 -16.10031245 19.63978921 -19 22 C-18.40608723 16.85275603 -14.58403428 13.35774367 -10.8125 10.125 C-9 9 -9 9 -7 9 C-6.67 8.01 -6.34 7.02 -6 6 C-5.34 6 -4.68 6 -4 6 C-3.566875 5.071875 -3.566875 5.071875 -3.125 4.125 C-2 2 -2 2 0 0 Z " fill="#33856D" transform="translate(245,381)"/>
<path d="M0 0 C6.73841266 0.33692063 11.71592649 1.99742178 17.859375 4.73046875 C21.98803766 6.39939333 26.15958277 7.38381407 30.50390625 8.32421875 C33 9 33 9 36 11 C26.93997719 10.71238023 19.32360655 7.8552396 10.93359375 4.71484375 C7.32115155 3.37933482 3.65980784 2.19775529 0 1 C0 0.67 0 0.34 0 0 Z " fill="#08090A" transform="translate(158,493)"/>
<path d="M0 0 C0 3 0 3 -2.125 5.5625 C-7.42459869 10.05563802 -12.31646619 10.42435135 -19 10 C-22 9 -22 9 -24 8 C-24 7.34 -24 6.68 -24 6 C-24.99 5.67 -25.98 5.34 -27 5 C-26.67 4.34 -26.34 3.68 -26 3 C-25.195625 3.66 -24.39125 4.32 -23.5625 5 C-19.50059831 7.67607641 -15.72341801 7.80585341 -11 7 C-6.59003332 5.43048061 -3.19974967 3.42549888 0 0 Z " fill="#0A2821" transform="translate(230,399)"/>
<path d="M0 0 C2.6875 -0.3125 2.6875 -0.3125 6 0 C8.875 2.5 8.875 2.5 11 5 C9.11942336 6.88057664 6.42875904 6.46277585 3.91015625 6.71875 C1.91911653 6.91037786 1.91911653 6.91037786 0 8 C0 5.36 0 2.72 0 0 Z " fill="#111C14" transform="translate(291,176)"/>
<path d="M0 0 C0 0.33 0 0.66 0 1 C-0.59425781 1.01675781 -1.18851562 1.03351563 -1.80078125 1.05078125 C-8.91715207 1.79230045 -12.63611843 4.92143082 -17.2434082 10.10083008 C-21.3121806 14.64837071 -21.3121806 14.64837071 -25 15 C-23.62452553 13.34943063 -22.24115859 11.70495699 -20.82421875 10.08984375 C-19.58646505 8.67186039 -18.38127736 7.22491173 -17.20703125 5.75390625 C-11.93907983 -0.33953859 -7.88324446 -1.04337059 0 0 Z " fill="#70CE75" transform="translate(299,95)"/>
<path d="M0 0 C0.99 0.33 1.98 0.66 3 1 C-2.33333333 6.33333333 -7.66666667 11.66666667 -13 17 C-13.66 16.34 -14.32 15.68 -15 15 C-14.01 14.67 -13.02 14.34 -12 14 C-11.71125 13.4225 -11.4225 12.845 -11.125 12.25 C-9.60616932 9.21233863 -7.45156267 7.3375365 -5 5 C-3.6078125 3.6078125 -3.6078125 3.6078125 -2.1875 2.1875 C-1.1046875 1.1046875 -1.1046875 1.1046875 0 0 Z " fill="#399271" transform="translate(262,364)"/>
<path d="M0 0 C0.33 0.66 0.66 1.32 1 2 C-1.33874837 7.30116297 -5.88401034 11.0599909 -10 15 C-10.99 14.34 -11.98 13.68 -13 13 C-8.66666667 8.66666667 -4.33333333 4.33333333 0 0 Z " fill="#183425" transform="translate(313,315)"/>
<path d="M0 0 C0.33 0 0.66 0 1 0 C1.65769403 6.90578728 0.71188235 10.40598396 -3.296875 16.0546875 C-5.03767814 18.04303604 -6.83128548 19.50075823 -9 21 C-9 18 -9 18 -7 15 C-6.34 15 -5.68 15 -5 15 C-5 14.34 -5 13.68 -5 13 C-4.34 13 -3.68 13 -3 13 C-2.86722656 12.14535156 -2.73445313 11.29070312 -2.59765625 10.41015625 C-2.42105469 9.30542969 -2.24445313 8.20070312 -2.0625 7.0625 C-1.88847656 5.96035156 -1.71445312 4.85820312 -1.53515625 3.72265625 C-1 1 -1 1 0 0 Z " fill="#6ABF73" transform="translate(412,205)"/>
<path d="M0 0 C4 2 4 2 5 3 C5.04092937 5.33297433 5.04241723 7.66705225 5 10 C2.625 10.625 2.625 10.625 0 11 C-0.66 10.34 -1.32 9.68 -2 9 C-1.34 9 -0.68 9 0 9 C0 6.03 0 3.06 0 0 Z " fill="#111514" transform="translate(271,153)"/>
<path d="M0 0 C0.86625 0.37125 0.86625 0.37125 1.75 0.75 C0.76 1.08 -0.23 1.41 -1.25 1.75 C-1.229375 2.678125 -1.20875 3.60625 -1.1875 4.5625 C-1.25 7.75 -1.25 7.75 -2.25 10.75 C-1.86067144 12.89255793 -1.86067144 12.89255793 -1.25 14.75 C-6.08675937 10.63875453 -6.08675937 10.63875453 -6.8125 6.6875 C-6.05287095 2.72054831 -4.46527185 -0.49614132 0 0 Z " fill="#0E2311" transform="translate(345.25,230.25)"/>
<path d="M0 0 C1.32 0 2.64 0 4 0 C2.41332422 3.90285767 -0.13350481 6.33520982 -3.125 9.25 C-4.03507813 10.14203125 -4.94515625 11.0340625 -5.8828125 11.953125 C-6.58148438 12.62859375 -7.28015625 13.3040625 -8 14 C-8.33 13.01 -8.66 12.02 -9 11 C-8.34 11 -7.68 11 -7 11 C-6.34 8.69 -5.68 6.38 -5 4 C-4.360625 3.896875 -3.72125 3.79375 -3.0625 3.6875 C-2.381875 3.460625 -1.70125 3.23375 -1 3 C-0.67 2.01 -0.34 1.02 0 0 Z " fill="#142C1D" transform="translate(200,178)"/>
<path d="M0 0 C0.33 0.99 0.66 1.98 1 3 C-9.37357631 13.55808656 -9.37357631 13.55808656 -15 18 C-15.66 17.67 -16.32 17.34 -17 17 C-11.39 11.39 -5.78 5.78 0 0 Z " fill="#56B177" transform="translate(208,175)"/>
<path d="M0 0 C0 0.33 0 0.66 0 1 C-0.60585937 1.02578125 -1.21171875 1.0515625 -1.8359375 1.078125 C-10.15443122 1.64122304 -17.41880538 3.74105453 -24 9 C-24 8.34 -24 7.68 -24 7 C-24.66 6.67 -25.32 6.34 -26 6 C-17.2137155 1.29876726 -9.97601741 -0.32471666 0 0 Z " fill="#153C32" transform="translate(157,313)"/>
<path d="M0 0 C5.6381667 2.50585187 9.74038524 6.63389487 14 11 C14.886875 11.86625 15.77375 12.7325 16.6875 13.625 C19 16 19 16 21 19 C17.87271206 17.60064173 15.63454803 15.93744202 13.14453125 13.59375 C12.08782227 12.60181641 12.08782227 12.60181641 11.00976562 11.58984375 C9.92211914 10.55537109 9.92211914 10.55537109 8.8125 9.5 C8.07580078 8.81035156 7.33910156 8.12070312 6.58007812 7.41015625 C1.13560948 2.27121897 1.13560948 2.27121897 0 0 Z " fill="#050507" transform="translate(69,432)"/>
<path d="M0 0 C0.99 0 1.98 0 3 0 C5.1875 2.5 5.1875 2.5 7 5 C10.48249231 3.74243333 13.06465849 2.2268108 16 0 C16.66 0 17.32 0 18 0 C16.62903502 4.11289495 14.52399633 5.56031023 11 8 C8.5 8.25 8.5 8.25 6 7 C3.80666109 4.80666109 1.87530145 2.46818027 0 0 Z " fill="#66B573" transform="translate(366,244)"/>
<path d="M0 0 C0.66 0.33 1.32 0.66 2 1 C-0.75564348 4.74767513 -3.76941821 7.56958336 -7.32421875 10.5078125 C-9.50497087 12.44964772 -11.18841057 14.71873924 -13 17 C-13.66 17 -14.32 17 -15 17 C-13.67879172 14.06769807 -12.25361803 12.01335101 -9.9609375 9.765625 C-9.38085938 9.19199219 -8.80078125 8.61835938 -8.203125 8.02734375 C-7.59984375 7.44082031 -6.9965625 6.85429687 -6.375 6.25 C-5.76398438 5.64800781 -5.15296875 5.04601562 -4.5234375 4.42578125 C-3.02011376 2.94594695 -1.51065144 1.47235324 0 0 Z " fill="#102717" transform="translate(351,278)"/>
<path d="M0 0 C0.99 0 1.98 0 3 0 C2.56826496 6.15222436 1.34594658 9.81917949 -2 15 C-2.33 15 -2.66 15 -3 15 C-3.31679286 10.3537047 -2.7936459 8.60845929 0 5 C0.25124826 2.33238236 0.25124826 2.33238236 0 0 Z " fill="#17301C" transform="translate(327,116)"/>
<path d="M0 0 C0.66 0 1.32 0 2 0 C1.45015228 3.87511727 -0.27555331 5.59576506 -3.0625 8.25 C-3.79597656 8.95640625 -4.52945312 9.6628125 -5.28515625 10.390625 C-5.85105469 10.92171875 -6.41695313 11.4528125 -7 12 C-7.66 11.67 -8.32 11.34 -9 11 C-9 10.34 -9 9.68 -9 9 C-7.28515625 7.34375 -7.28515625 7.34375 -5.0625 5.5 C-2.07954821 3.11073001 -2.07954821 3.11073001 0 0 Z " fill="#68B175" transform="translate(361,264)"/>
<path d="M0 0 C1.32 0 2.64 0 4 0 C5.625 2.4375 5.625 2.4375 7 5 C7.66 5.33 8.32 5.66 9 6 C9 6.66 9 7.32 9 8 C9.66 8 10.32 8 11 8 C12.625 10 12.625 10 14 12 C13.67 12.66 13.34 13.32 13 14 C10.83031809 11.85714108 8.66416525 9.71091768 6.5 7.5625 C5.87996094 6.95083984 5.25992187 6.33917969 4.62109375 5.70898438 C4.03457031 5.12568359 3.44804687 4.54238281 2.84375 3.94140625 C2.02680664 3.13231812 2.02680664 3.13231812 1.19335938 2.30688477 C0 1 0 1 0 0 Z " fill="#132D17" transform="translate(395,184)"/>
<path d="M0 0 C4.41419289 5.2685528 5.12525805 8.34687284 5.0625 15.1875 C5.05347656 16.45980469 5.04445312 17.73210937 5.03515625 19.04296875 C5.02355469 20.01878906 5.01195312 20.99460937 5 22 C4.67 22 4.34 22 4 22 C3.34 16.72 2.68 11.44 2 6 C1.34 6 0.68 6 0 6 C0 4.02 0 2.04 0 0 Z " fill="#0C2922" transform="translate(186,333)"/>
<path d="M0 0 C3.31262551 0.53429444 6.48559797 1.3886076 9.6875 2.375 C10.45449219 2.60960937 11.22148437 2.84421875 12.01171875 3.0859375 C14 4 14 4 16 7 C10.23955788 6.39363767 5.27985631 4.24341721 0 2 C0 1.34 0 0.68 0 0 Z " fill="#10392C" transform="translate(159,314)"/>
<path d="M0 0 C0.33 0.99 0.66 1.98 1 3 C-6.11389522 10.66742597 -6.11389522 10.66742597 -11 12 C-7.49102731 7.81576108 -3.91939465 3.80411834 0 0 Z " fill="#112614" transform="translate(397,232)"/>
<path d="M0 0 C0.66 0 1.32 0 2 0 C2 0.99 2 1.98 2 3 C-1.96 4.98 -5.92 6.96 -10 9 C-10 8.01 -10 7.02 -10 6 C-9.36191406 5.65066406 -8.72382813 5.30132812 -8.06640625 4.94140625 C-7.24011719 4.48636719 -6.41382813 4.03132812 -5.5625 3.5625 C-4.73878906 3.11003906 -3.91507812 2.65757812 -3.06640625 2.19140625 C-1.07691202 1.16337603 -1.07691202 1.16337603 0 0 Z " fill="#70CA7B" transform="translate(386,177)"/>
<path d="M0 0 C0.99 0.33 1.98 0.66 3 1 C0.03 3.97 -2.94 6.94 -6 10 C-6.99 9.67 -7.98 9.34 -9 9 C-8.34 9 -7.68 9 -7 9 C-6.67 8.01 -6.34 7.02 -6 6 C-5.34 6 -4.68 6 -4 6 C-3.71125 5.38125 -3.4225 4.7625 -3.125 4.125 C-2 2 -2 2 0 0 Z " fill="#399374" transform="translate(245,381)"/>
<path d="M0 0 C0.33 1.32 0.66 2.64 1 4 C-1.64 6.31 -4.28 8.62 -7 11 C-7.66 10.67 -8.32 10.34 -9 10 C-6.22237877 6.39937989 -3.26008643 3.16952847 0 0 Z " fill="#388D71" transform="translate(117,265)"/>
<path d="M0 0 C0 3.20395416 -0.74335022 5.09399739 -2 8 C-1.01 8.33 -0.02 8.66 1 9 C1.33 10.32 1.66 11.64 2 13 C-0.31 11.35 -2.62 9.7 -5 8 C-3.95206337 3.80825346 -3.08236365 2.78407039 0 0 Z " fill="#64B571" transform="translate(258,125)"/>
<path d="M0 0 C0.66 0.33 1.32 0.66 2 1 C1.401875 1.556875 0.80375 2.11375 0.1875 2.6875 C-2.09884634 4.90120399 -2.09884634 4.90120399 -3.4375 7.6875 C-5 10 -5 10 -7.6875 10.8125 C-8.450625 10.874375 -9.21375 10.93625 -10 11 C-6.79239749 7.19364503 -3.59253891 3.45436433 0 0 Z " fill="#3B8D6D" transform="translate(130,252)"/>
<path d="M0 0 C4.52615993 3.67832017 8.39424999 7.41086363 12 12 C6.90479232 11.43386581 4.28100506 7.54604059 1.1875 3.8125 C0 2 0 2 0 0 Z " fill="#64B276" transform="translate(304,206)"/>
<path d="M0 0 C3.16115776 1.36983503 3.9927092 1.9890638 6 5 C5.0925 4.773125 4.185 4.54625 3.25 4.3125 C0.00496499 3.67394455 0.00496499 3.67394455 -2.375 5.4375 C-2.91125 5.953125 -3.4475 6.46875 -4 7 C-4.66 6.67 -5.32 6.34 -6 6 C-4.02 4.02 -2.04 2.04 0 0 Z " fill="#5FB06F" transform="translate(240,143)"/>
<path d="M0 0 C-3.13411302 2.08940868 -3.97450472 2.27364412 -7.5625 2.25 C-8.74005859 2.25773437 -8.74005859 2.25773437 -9.94140625 2.265625 C-12 2 -12 2 -14 0 C-8.97703996 -1.13016601 -5.02125926 -0.77916092 0 0 Z " fill="#30856D" transform="translate(222,405)"/>
<path d="M0 0 C3.81530628 3.27026253 6.40632712 7.23853564 8 12 C7.67 12.99 7.34 13.98 7 15 C5.82823482 12.87767021 4.66245215 10.75242209 3.5 8.625 C3.16613281 8.02171875 2.83226562 7.4184375 2.48828125 6.796875 C0 2.2265625 0 2.2265625 0 0 Z " fill="#070809" transform="translate(30,377)"/>
<path d="M0 0 C3.52191627 0.26088269 4.21275268 1.24314592 6.625 4 C7.40875 4.99 8.1925 5.98 9 7 C9.66 7.33 10.32 7.66 11 8 C10.67 8.99 10.34 9.98 10 11 C8.33035479 9.35718838 6.6643536 7.71067239 5 6.0625 C4.071875 5.14597656 3.14375 4.22945312 2.1875 3.28515625 C0 1 0 1 0 0 Z " fill="#13341C" transform="translate(249,150)"/>
<path d="M0 0 C0 3 0 3 -2.125 5.6875 C-5 8 -5 8 -8.3125 8.3125 C-9.6428125 8.1578125 -9.6428125 8.1578125 -11 8 C-10.01 7.34 -9.02 6.68 -8 6 C-6.59866565 4.96574559 -5.20309695 3.92364688 -3.8125 2.875 C-2.73935547 2.06675781 -2.73935547 2.06675781 -1.64453125 1.2421875 C-1.10183594 0.83226562 -0.55914062 0.42234375 0 0 Z " fill="#0F2F27" transform="translate(230,399)"/>
<path d="M0 0 C0.99 0.33 1.98 0.66 3 1 C0.14723863 3.93200474 -2.65079784 6.64315404 -6 9 C-5.52797514 4.75177626 -3.03344482 2.80010291 0 0 Z " fill="#51A16C" transform="translate(334,292)"/>
<path d="M0 0 C0.66 0 1.32 0 2 0 C1.52794881 4.24846075 -0.88877522 6.26819288 -4 9 C-4.66 9 -5.32 9 -6 9 C-6 8.01 -6 7.02 -6 6 C-4.68 5.67 -3.36 5.34 -2 5 C-2 4.34 -2 3.68 -2 3 C-1.34 3 -0.68 3 0 3 C0 2.01 0 1.02 0 0 Z " fill="#132C1B" transform="translate(225,154)"/>
<path d="M0 0 C0.5775 0.45375 1.155 0.9075 1.75 1.375 C3.7800333 2.84113516 5.73539843 3.94857784 8 5 C4.71303767 5.79953138 3.28976808 6.09658936 0 5 C0 3.35 0 1.7 0 0 Z " fill="#14352F" transform="translate(119,318)"/>
<path d="M0 0 C0.99 0.33 1.98 0.66 3 1 C3.33 2.98 3.66 4.96 4 7 C2.02 5.35 0.04 3.7 -2 2 C-1.34 1.34 -0.68 0.68 0 0 Z " fill="#192E24" transform="translate(309,207)"/>
<path d="M0 0 C-3.42346555 3.14958831 -6.44262737 3.56179109 -11 4 C-10.67 3.01 -10.34 2.02 -10 1 C-6.59437148 0.22157062 -3.49234244 -0.09978121 0 0 Z " fill="#193E20" transform="translate(379,182)"/>
<path d="M0 0 C0.99 0.33 1.98 0.66 3 1 C-0.465 3.97 -0.465 3.97 -4 7 C-4 4 -4 4 -2 1.8125 C-1.34 1.214375 -0.68 0.61625 0 0 Z " fill="#3C936D" transform="translate(275,351)"/>
<path d="M0 0 C0 1.65 0 3.3 0 5 C-1.9375 4.6875 -1.9375 4.6875 -4 4 C-4.33 3.01 -4.66 2.02 -5 1 C-3 0 -3 0 0 0 Z " fill="#152416" transform="translate(329,111)"/>
<path d="M0 0 C0 3 0 3 -2.3125 5.6875 C-5 8 -5 8 -8 8 C-5.36 5.36 -2.72 2.72 0 0 Z " fill="#0A281A" transform="translate(283,346)"/>
<path d="M0 0 C3.79588866 0.54226981 5.47211993 2.20127563 8 5 C7.67 5.66 7.34 6.32 7 7 C5.83040013 6.02433888 4.66438823 5.044375 3.5 4.0625 C2.8503125 3.51722656 2.200625 2.97195313 1.53125 2.41015625 C1.0259375 1.94480469 0.520625 1.47945313 0 1 C0 0.67 0 0.34 0 0 Z " fill="#3D856C" transform="translate(175,320)"/>
<path d="M0 0 C2.31 1.98 4.62 3.96 7 6 C5.68 6.33 4.36 6.66 3 7 C0 2.25 0 2.25 0 0 Z " fill="#1C3924" transform="translate(358,237)"/>
<path d="M0 0 C0.66 0.99 1.32 1.98 2 3 C0.625 4.5 0.625 4.5 -1 6 C-1.66 6 -2.32 6 -3 6 C-2.42655063 3.13275314 -2.1385485 2.1385485 0 0 Z " fill="#3E9E73" transform="translate(156,226)"/>
<path d="M0 0 C4.2742558 1.5830577 6.26531794 4.50568404 9 8 C5.08158173 6.69386058 2.67359191 5.16870152 0 2 C0 1.34 0 0.68 0 0 Z " fill="#6BB679" transform="translate(292,195)"/>
<path d="M0 0 C-2.55068845 2.35448165 -3.71017358 2.98327924 -7.25 3.1875 C-8.1575 3.125625 -9.065 3.06375 -10 3 C-6.84439813 -0.15560187 -4.30999015 -1.43666338 0 0 Z " fill="#19381F" transform="translate(276,164)"/>
<path d="M0 0 C0 0.66 0 1.32 0 2 C-4.29 1.34 -8.58 0.68 -13 0 C-13 -0.33 -13 -0.66 -13 -1 C-4.57142857 -2.42857143 -4.57142857 -2.42857143 0 0 Z " fill="#254A28" transform="translate(307,94)"/>
<path d="M0 0 C0.66 0 1.32 0 2 0 C0.14285714 7.57142857 0.14285714 7.57142857 -3 10 C-2.67 8.02 -2.34 6.04 -2 4 C-1.34 4 -0.68 4 0 4 C0 2.68 0 1.36 0 0 Z " fill="#0F342B" transform="translate(189,365)"/>
<path d="M0 0 C0.99 0.33 1.98 0.66 3 1 C0.03 3.475 0.03 3.475 -3 6 C-2.42655063 3.13275314 -2.1385485 2.1385485 0 0 Z " fill="#66C37B" transform="translate(233,150)"/>
<path d="M0 0 C0.66 0.33 1.32 0.66 2 1 C2 1.66 2 2.32 2 3 C4.97 3.495 4.97 3.495 8 4 C5.83032311 4.95465783 4.43671207 5.14401212 2.17578125 4.3984375 C0.4315257 3.64129615 -1.28627131 2.82390802 -3 2 C-2.01 1.34 -1.02 0.68 0 0 Z " fill="#23442A" transform="translate(346,181)"/>
<path d="M0 0 C2.31 1.98 4.62 3.96 7 6 C6.34 6.66 5.68 7.32 5 8 C4.34 6.68 3.68 5.36 3 4 C2.34 4 1.68 4 1 4 C0.67 2.68 0.34 1.36 0 0 Z " fill="#1B4026" transform="translate(262,141)"/>
</svg>
