<svg width="180" height="36" viewBox="0 0 180 36" fill="none" xmlns="http://www.w3.org/2000/svg">
  <circle cx="18" cy="18" r="16" fill="#19191B"/>
  <g transform="translate(6, 6) scale(0.047)">
    <path d="M0 0 C1.11890625 -0.03738281 2.2378125 -0.07476562 3.390625 -0.11328125 C11.52199488 0.91732261 17.12521998 8.25438401 22.6875 13.75 C23.57501953 14.59626953 24.46253906 15.44253906 25.37695312 16.31445312 C26.21033203 17.13751953 27.04371094 17.96058594 27.90234375 18.80859375 C28.66538818 19.55294678 29.42843262 20.2972998 30.21459961 21.06420898 C31.75 23.3125 31.75 23.3125 31.56274414 25.93334961 C30.65933828 28.57789457 29.55100051 30.96408624 28.25 33.4375 C23.19838607 43.10018013 22.86875873 55.50556595 25.7734375 66.015625 C27.204943 69.03681339 28.77812187 71.61500352 30.75 74.3125 C31.38035156 75.20195312 32.01070312 76.09140625 32.66015625 77.0078125 C38.63105349 84.48538474 46.53977384 90.32037288 56.19140625 91.6484375 C66.64017188 92.43642887 78.17750819 92.42275951 86.8125 85.625 C88.2665625 84.4803125 88.2665625 84.4803125 89.75 83.3125 C95.15954996 85.58663299 98.84103229 90.06928214 102.9140625 94.16088867 C104.36860551 95.61859162 105.83596154 97.06246476 107.3046875 98.50585938 C108.22765625 99.42818359 109.150625 100.35050781 110.1015625 101.30078125 C110.94541504 102.14165283 111.78926758 102.98252441 112.65869141 103.84887695 C116.26928997 108.10226828 117.38921722 112.3221841 117.15332031 117.81274414 C115.78019029 126.32332422 107.2640876 133.2377893 101.43505859 138.96362305 C99.97942921 140.39523132 98.53803023 141.84016834 97.09765625 143.28710938 C90.01734075 150.3125 90.01734075 150.3125 87.75 150.3125 C87.42 151.3025 87.09 152.2925 86.75 153.3125 C84 156.0625 84 156.0625 80.75 158.3125 C76.13106715 158.15486044 74.08046349 156.10520278 70.95703125 152.875 C70.07982422 151.98039063 69.20261719 151.08578125 68.29882812 150.1640625 C67.39583984 149.22304687 66.49285156 148.28203125 65.5625 147.3125 C63.75851077 145.45638705 61.95261817 143.60212151 60.14453125 141.75 C59.34893799 140.92371094 58.55334473 140.09742188 57.73364258 139.24609375 C55.27852423 136.85291992 54.29715858 136.37197376 50.875 136 C47.70475233 136.06465083 47.70475233 136.06465083 45.375 137.9375 C43.59954597 140.23710837 43.59954597 140.23710837 43.0625 143.0625 C44.87989404 151.65381729 55.28939288 158.85029332 61.4921875 164.6640625 C62.18570312 165.33695313 62.87921875 166.00984375 63.59375 166.703125 C64.22474609 167.30157227 64.85574219 167.90001953 65.50585938 168.51660156 C66.75 170.3125 66.75 170.3125 66.79785156 172.16918945 C65.20588307 175.42545492 62.70804381 177.71998489 60.140625 180.21484375 C59.57680115 180.77442276 59.01297729 181.33400177 58.43206787 181.91053772 C56.62830721 183.69753232 54.81442298 185.47383873 53 187.25 C51.79358295 188.44136112 50.58784595 189.6334113 49.3828125 190.82617188 C46.65800063 193.52106834 43.92577308 196.2082409 41.1895752 198.89157104 C39.79050348 200.27252115 38.40623234 201.66841593 37.02246094 203.06469727 C34.71911616 205.34304872 32.27807417 207.29004066 29.75 209.3125 C28.07292162 210.9686895 26.40856214 212.63776803 24.75 214.3125 C23.57647766 215.47622609 22.40193065 216.63891947 21.2265625 217.80078125 C12.45446181 226.49465712 12.45446181 226.49465712 4.21875 235.69140625 C2.19251216 237.92781237 -0.09253375 239.77245903 -2.42041016 241.68457031 C-4.23461026 243.29880654 -5.74436142 244.97360205 -7.3046875 246.83203125 C-11.89905657 252.14997088 -16.88542869 257.05585195 -21.875 262 C-22.803125 262.92361328 -23.73125 263.84722656 -24.6875 264.79882812 C-26.41240902 266.51508788 -28.13835167 268.23030997 -29.86572266 269.9440918 C-32.3327385 272.39468782 -34.79225374 274.85260911 -37.25 277.3125 C-44.58333333 284.64583333 -51.91666667 291.97916667 -59.25 299.3125 C-60.13816406 300.20300049 -61.02632812 301.09350098 -61.94140625 302.01098633 C-73.098264 313.13362783 -73.098264 313.13362783 -81.5625 313.8125 C-91.03866937 313.44460287 -98.06320709 303.7478387 -104.25 297.4375 C-105.12011719 296.55835938 -105.99023438 295.67921875 -106.88671875 294.7734375 C-109.01248191 292.6243143 -111.13339889 290.47064069 -113.25 288.3125 C-112.2132719 284.97653935 -111.33801222 282.43742057 -109.3125 279.5625 C-103.99917877 271.18999382 -103.26277779 262.05010091 -104.25 252.3125 C-106.75954893 241.7365438 -113.78965066 232.45921363 -122.3828125 226.0078125 C-131.64894233 220.52892919 -142.92150105 218.52372566 -153.38671875 221.078125 C-157.80868923 222.44877268 -161.90711648 223.8483785 -165.6875 226.5625 C-168.68989896 228.6129188 -169.69473709 228.84759587 -173.25 228.3125 C-175.80541992 226.35644531 -175.80541992 226.35644531 -178.48046875 223.640625 C-178.95696365 223.16179871 -179.43345856 222.68297241 -179.9243927 222.18963623 C-180.92777216 221.17653161 -181.92512142 220.15742362 -182.91674805 219.1328125 C-184.43057715 217.56964846 -185.96220055 216.02588139 -187.49804688 214.484375 C-197.5178001 204.3197333 -197.5178001 204.3197333 -197.625 197.4375 C-197.41700873 189.53383184 -192.64381163 185.55284285 -187.26953125 180.328125 C-184.90200195 177.96517506 -182.76541373 175.46279718 -180.6171875 172.90234375 C-178.61794 170.57750452 -176.44513017 168.45134478 -174.25 166.3125 C-173.1053125 165.136875 -173.1053125 165.136875 -171.9375 163.9375 C-169.75872854 161.80939764 -167.5492532 159.80547369 -165.25 157.8125 C-161.34986742 154.42554276 -157.58217794 151.05811248 -154.4375 146.9375 C-151.9267688 143.92462256 -149.11642975 141.55217429 -146.140625 139.01171875 C-143.87775468 136.97794068 -142.08326448 134.73502806 -140.25 132.3125 C-138.125 130 -138.125 130 -136.25 128.3125 C-135.59 128.3125 -134.93 128.3125 -134.25 128.3125 C-133.755 126.8275 -133.755 126.8275 -133.25 125.3125 C-131.58784732 123.97354368 -129.92036393 122.64119858 -128.25 121.3125 C-126.56267723 119.32989574 -124.89633943 117.3292658 -123.25 115.3125 C-120.26746188 112.15953114 -117.09383381 109.28325386 -113.84619141 106.41040039 C-107.64689238 100.8379158 -101.77626642 94.96494091 -95.8984375 89.05859375 C-94.74709775 87.90538364 -93.59553311 86.75239803 -92.4437561 85.59962463 C-89.4463125 82.59840447 -86.45188687 79.59419145 -83.45812988 76.58929443 C-80.38930683 73.51015137 -77.31756974 70.43391821 -74.24609375 67.35742188 C-68.24457778 61.34525459 -62.24625439 55.32991493 -56.25 49.3125 C-52.6460802 51.00322598 -50.35343044 52.99031411 -47.5546875 55.84765625 C-46.23404297 57.18473633 -46.23404297 57.18473633 -44.88671875 58.54882812 C-43.97535156 59.48146484 -43.06398437 60.41410156 -42.125 61.375 C-40.31210385 63.22222167 -38.49710642 65.06738421 -36.6796875 66.91015625 C-35.87772949 67.73008057 -35.07577148 68.55000488 -34.24951172 69.39477539 C-31.78101174 71.76230498 -30.78968556 72.25383853 -27.375 72.625 C-24.21581945 72.55303995 -24.21581945 72.55303995 -21.875 70.75 C-20.18465605 68.21448408 -19.54093963 66.45542242 -19.61669922 63.39672852 C-21.11968479 58.45031842 -25.84056305 54.99886532 -29.5 51.5625 C-30.37269531 50.71300781 -31.24539063 49.86351562 -32.14453125 48.98828125 C-35.71167122 45.54095361 -39.22127753 42.21767437 -43.25 39.3125 C-42.67188317 36.11603166 -41.80859318 34.50618434 -39.484375 32.25390625 C-38.92363281 31.70283203 -38.36289062 31.15175781 -37.78515625 30.58398438 C-37.19605469 30.02001953 -36.60695313 29.45605469 -36 28.875 C-35.42636719 28.31490234 -34.85273438 27.75480469 -34.26171875 27.17773438 C-33.1215422 26.06482856 -31.9787276 24.95461885 -30.83325195 23.84716797 C-27.98233816 21.08373788 -25.19068394 18.2617311 -22.39599609 15.44165039 C-20.28658158 13.31352213 -18.17459145 11.18797122 -16.0625 9.0625 C-15.33869141 8.3303125 -14.61488281 7.598125 -13.86914062 6.84375 C-13.17626953 6.14765625 -12.48339844 5.4515625 -11.76953125 4.734375 C-10.82750854 3.78449707 -10.82750854 3.78449707 -9.86645508 2.81542969 C-6.7528703 -0.07948466 -4.1520192 0.09005521 0 0 Z " fill="#4BBC80" transform="translate(296.25,93.6875)"/>
  </g>
  <text x="44" y="24" font-family="system-ui, -apple-system, BlinkMacSystemFont, sans-serif" font-size="18" font-weight="600" fill="#F9FAFB">TicketCord</text>
</svg>
